<svg xmlns="http://www.w3.org/2000/svg" width="350" height="42" viewBox="0 0 350 42"><path fill="#AD1917" d="M273.648 21.65h41.802c1.333-.035 2.449-.519 3.35-1.451.967-.934 1.45-2.1 1.45-3.5l-.101-.899a3.826 3.826 0 00-.699-1.649l-.65-.801c-.899-.934-2.017-1.434-3.35-1.5h-41.802v9.8M331.399 2.1h-3.051V.35h8.2V2.1h-3.05v8.551h-2.101l.002-8.551M319.45 7.65c1.065.466 2.065 1.149 3 2.049l1.648 2.15a10.281 10.281 0 011.2 3.95l.05.899c0 1.867-.417 3.518-1.25 4.95l-1.648 2.148c-1.935 1.9-4.2 2.885-6.801 2.951h-.699l13.1 14.9h-7.35l-13.051-14.9h-34.001v14.9h-5.1V6.8h47.101c1.368.033 2.634.316 3.801.85m18.5-7.3h3.148l1.852 7 1.85-7h3.15v10.3H346v-8.1l-2.05 8.101h-2l-2.051-8.101v8.101h-1.949V.35"/><path fill="#A51916" d="M244.1 31.799h-29.35l-8.65 9.852h-7.4L229.398 6.8l30.65 34.851h-7.3l-8.648-9.852m-4.5-5.049l-10.2-11.6-10.2 11.6h20.4"/><path fill="#B2B2B2" d="M167.3 14.65h4.7l14.699 20.549 18.101-20.5h5.7L186.699 41.65 169.65 17.9 152.6 41.65l-23.8-26.951h5.7l18.1 20.5 14.7-20.549m-41.101 0v3.899h-42v7.602h42V30.1h-42v7.65h42v3.9H80.3v-27h45.899m-59.5 0h3.951v27h-3.951v-27M56.05 6.8h7.35L32.7 41.65 2.05 6.8H9.4l23.3 26.499L56.05 6.8"/></svg>