<?xml version="1.0" encoding="utf-8"?>
<!-- Generator: Adobe Illustrator 16.0.0, SVG Export Plug-In . SVG Version: 6.00 Build 0)  -->
<!DOCTYPE svg PUBLIC "-//W3C//DTD SVG 1.1//EN" "http://www.w3.org/Graphics/SVG/1.1/DTD/svg11.dtd">
<svg version="1.1" id="Layer_1" xmlns="http://www.w3.org/2000/svg" xmlns:xlink="http://www.w3.org/1999/xlink" x="0px" y="0px"
	 width="350px" height="42px" viewBox="0 0 350 42" enable-background="new 0 0 350 42" xml:space="preserve">
<g>
	<path fill="#AD1917" d="M273.648,21.65h41.802c1.333-0.035,2.449-0.519,3.35-1.451c0.967-0.934,1.45-2.1,1.45-3.5l-0.101-0.899
		c-0.101-0.601-0.333-1.149-0.699-1.649l-0.65-0.801c-0.899-0.934-2.017-1.434-3.35-1.5h-41.802V21.65 M331.399,2.1h-3.051V0.35h8.2
		V2.1h-3.05v8.551h-2.101L331.399,2.1 M319.45,7.65c1.065,0.466,2.065,1.149,3,2.049l1.648,2.15c0.667,1.233,1.066,2.551,1.2,3.95
		l0.05,0.899c0,1.867-0.417,3.518-1.25,4.95l-1.648,2.148c-1.935,1.9-4.2,2.885-6.801,2.951h-0.699l13.1,14.9h-7.35l-13.051-14.9
		h-34.001v14.9h-5.1V6.8h47.101C317.017,6.833,318.283,7.116,319.45,7.65 M337.95,0.35h3.148l1.852,7l1.85-7h3.15v10.3H346v-8.1
		l-2.05,8.101h-2l-2.051-8.101v8.101h-1.949V0.35"/>
	<path fill="#A51916" d="M244.1,31.799h-29.35l-8.65,9.852H198.7L229.398,6.8l30.65,34.851h-7.3L244.1,31.799 M239.6,26.75
		L229.4,15.15l-10.2,11.6H239.6"/>
	<path fill="#B2B2B2" d="M167.3,14.65h4.7l14.699,20.549l18.101-20.5h5.7L186.699,41.65L169.65,17.9L152.6,41.65l-23.8-26.951h5.7
		l18.1,20.5L167.3,14.65 M126.199,14.65v3.899h-42v7.602h42V30.1h-42v7.65h42v3.9H80.3v-27H126.199 M66.699,14.65h3.951v27h-3.951
		V14.65 M56.05,6.8h7.35L32.7,41.65L2.05,6.8H9.4l23.3,26.499L56.05,6.8"/>
</g>
</svg>
